<?xml version="1.0" encoding="UTF-8"?><svg xmlns="http://www.w3.org/2000/svg" xmlns:xlink="http://www.w3.org/1999/xlink" fill-opacity="1" color-rendering="auto" color-interpolation="auto" text-rendering="auto" stroke="black" stroke-linecap="square" width="956" stroke-miterlimit="10" shape-rendering="auto" stroke-opacity="1" fill="black" stroke-dasharray="none" font-weight="normal" stroke-width="1" height="472" font-family="'Dialog'" font-style="normal" stroke-linejoin="miter" font-size="12px" stroke-dashoffset="0" image-rendering="auto">
  <!--Generated by ySVG 2.5-->
  <defs id="genericDefs"/>
  <g>
    <defs id="defs1">
      <clipPath clipPathUnits="userSpaceOnUse" id="clipPath1">
        <path d="M0 0 L956 0 L956 472 L0 472 L0 0 Z"/>
      </clipPath>
      <clipPath clipPathUnits="userSpaceOnUse" id="clipPath2">
        <path d="M90 125 L1046 125 L1046 597 L90 597 L90 125 Z"/>
      </clipPath>
    </defs>
    <g fill="white" text-rendering="geometricPrecision" shape-rendering="geometricPrecision" transform="translate(-90,-125)" stroke="white">
      <rect x="90" width="956" height="472" y="125" clip-path="url(#clipPath2)" stroke="none"/>
    </g>
    <g fill="rgb(255,204,153)" text-rendering="geometricPrecision" shape-rendering="geometricPrecision" transform="matrix(1,0,0,1,-90,-125)" stroke="rgb(255,204,153)">
      <path d="M418.5852 385.8396 L460.7856 370.8396 L502.9853 385.8396 L460.7856 400.8396 Z" fill-rule="evenodd" clip-path="url(#clipPath2)" stroke="none"/>
    </g>
    <g text-rendering="geometricPrecision" stroke-miterlimit="1.45" shape-rendering="geometricPrecision" transform="matrix(1,0,0,1,-90,-125)" stroke-linecap="butt">
      <path fill="none" d="M418.5852 385.8396 L460.7856 370.8396 L502.9853 385.8396 L460.7856 400.8396 Z" fill-rule="evenodd" clip-path="url(#clipPath2)"/>
      <text x="437.5348" xml:space="preserve" y="390.2977" clip-path="url(#clipPath2)" font-family="'Ubuntu'" stroke="none">massiert</text>
    </g>
    <g fill="rgb(255,204,153)" text-rendering="geometricPrecision" shape-rendering="geometricPrecision" transform="matrix(1,0,0,1,-90,-125)" stroke="rgb(255,204,153)">
      <path d="M683.4961 394.8397 L725.6961 379.8397 L767.8961 394.8397 L725.6961 409.8397 Z" fill-rule="evenodd" clip-path="url(#clipPath2)" stroke="none"/>
    </g>
    <g text-rendering="geometricPrecision" stroke-miterlimit="1.45" shape-rendering="geometricPrecision" transform="matrix(1,0,0,1,-90,-125)" stroke-linecap="butt">
      <path fill="none" d="M683.4961 394.8397 L725.6961 379.8397 L767.8961 394.8397 L725.6961 409.8397 Z" fill-rule="evenodd" clip-path="url(#clipPath2)"/>
      <text x="704.2701" xml:space="preserve" y="399.2977" clip-path="url(#clipPath2)" font-family="'Ubuntu'" stroke="none">benutzt</text>
    </g>
    <g fill="rgb(245,245,245)" text-rendering="geometricPrecision" shape-rendering="geometricPrecision" transform="matrix(1,0,0,1,-90,-125)" stroke="rgb(245,245,245)">
      <rect x="105.7523" y="351.4559" clip-path="url(#clipPath2)" width="259.2155" rx="4" ry="4" height="229.8631" stroke="none"/>
      <rect x="105.7523" y="351.4559" clip-path="url(#clipPath2)" fill="rgb(235,235,235)" width="259.2155" height="19.0001" stroke="none"/>
    </g>
    <g font-size="15px" stroke-linecap="butt" transform="matrix(1,0,0,1,-90,-125)" text-rendering="geometricPrecision" font-family="sans-serif" shape-rendering="geometricPrecision" stroke-miterlimit="1.45">
      <text x="305.4574" xml:space="preserve" y="364.391" clip-path="url(#clipPath2)" stroke="none">Masseur</text>
      <rect x="105.7523" y="351.4559" clip-path="url(#clipPath2)" fill="none" width="259.2155" stroke-dasharray="6,2" rx="4" ry="4" height="229.8631"/>
    </g>
    <g fill="rgb(255,204,153)" text-rendering="geometricPrecision" shape-rendering="geometricPrecision" transform="matrix(1,0,0,1,-90,-125)" stroke="rgb(255,204,153)">
      <ellipse rx="39.2483" ry="15" clip-path="url(#clipPath2)" cx="185.753" cy="551.319" stroke="none"/>
    </g>
    <g text-rendering="geometricPrecision" stroke-miterlimit="1.45" shape-rendering="geometricPrecision" transform="matrix(1,0,0,1,-90,-125)" stroke-linecap="butt">
      <ellipse rx="39.2483" fill="none" ry="15" clip-path="url(#clipPath2)" cx="185.753" cy="551.319"/>
      <text x="169.7328" xml:space="preserve" y="555.7771" clip-path="url(#clipPath2)" font-family="'Ubuntu'" stroke="none">Name</text>
    </g>
    <g fill="rgb(255,204,153)" text-rendering="geometricPrecision" shape-rendering="geometricPrecision" transform="matrix(1,0,0,1,-90,-125)" stroke="rgb(255,204,153)">
      <ellipse rx="48.2595" ry="21.0621" clip-path="url(#clipPath2)" cx="292.7754" cy="406.5181" stroke="none"/>
    </g>
    <g text-rendering="geometricPrecision" stroke-miterlimit="1.45" shape-rendering="geometricPrecision" transform="matrix(1,0,0,1,-90,-125)" stroke-linecap="butt">
      <ellipse rx="48.2595" fill="none" ry="21.0621" clip-path="url(#clipPath2)" cx="292.7754" cy="406.5181"/>
      <text x="264.0591" xml:space="preserve" y="410.9761" clip-path="url(#clipPath2)" font-family="'Ubuntu'" stroke="none">MasseurID</text>
      <line y2="413.2441" fill="none" x1="264.0592" clip-path="url(#clipPath2)" x2="321.4916" y1="413.2441"/>
    </g>
    <g fill="rgb(255,204,153)" text-rendering="geometricPrecision" shape-rendering="geometricPrecision" transform="matrix(1,0,0,1,-90,-125)" stroke="rgb(255,204,153)">
      <rect x="265.5678" width="84.4" height="30" y="491.5821" clip-path="url(#clipPath2)" stroke="none"/>
    </g>
    <g text-rendering="geometricPrecision" stroke-miterlimit="1.45" shape-rendering="geometricPrecision" transform="matrix(1,0,0,1,-90,-125)" stroke-linecap="butt">
      <rect fill="none" x="265.5678" width="84.4" height="30" y="491.5821" clip-path="url(#clipPath2)"/>
      <text x="284.9436" xml:space="preserve" y="511.0401" clip-path="url(#clipPath2)" font-family="'Ubuntu'" stroke="none">Masseur</text>
    </g>
    <g fill="rgb(255,204,153)" text-rendering="geometricPrecision" shape-rendering="geometricPrecision" transform="matrix(1,0,0,1,-90,-125)" stroke="rgb(255,204,153)">
      <ellipse rx="39.2483" ry="15" clip-path="url(#clipPath2)" cx="160.0006" cy="473.6595" stroke="none"/>
    </g>
    <g text-rendering="geometricPrecision" stroke-miterlimit="1.45" shape-rendering="geometricPrecision" transform="matrix(1,0,0,1,-90,-125)" stroke-linecap="butt">
      <ellipse rx="39.2483" fill="none" ry="15" clip-path="url(#clipPath2)" cx="160.0006" cy="473.6595"/>
      <text x="135.1125" xml:space="preserve" y="478.1176" clip-path="url(#clipPath2)" font-family="'Ubuntu'" stroke="none">Vorname</text>
      <path fill="none" d="M270.2586 521.5869 L222.1749 538.5045" clip-path="url(#clipPath2)"/>
      <path d="M214.6284 541.1596 L227.6077 541.8935 L223.1182 538.1725 L224.2887 532.4603 Z" clip-path="url(#clipPath2)" stroke="none"/>
      <path fill="none" d="M278.0635 491.5383 L287.7771 435.4032" clip-path="url(#clipPath2)"/>
      <path d="M289.1411 427.5204 L282.1683 438.4921 L287.6066 436.3886 L292.0219 440.1972 Z" clip-path="url(#clipPath2)" stroke="none"/>
      <path fill="none" d="M317.9529 491.5858 L458.1351 399.8613" clip-path="url(#clipPath2)"/>
      <text x="413.3487" xml:space="preserve" y="465.5827" clip-path="url(#clipPath2)" font-family="sans-serif" stroke="none">n</text>
      <path fill="none" d="M265.5647 505.1395 L198.6103 485.1732" clip-path="url(#clipPath2)"/>
      <path d="M190.9439 482.887 L201.0146 491.1078 L199.5686 485.459 L203.8723 481.5248 Z" clip-path="url(#clipPath2)" stroke="none"/>
    </g>
    <g fill="rgb(245,245,245)" text-rendering="geometricPrecision" shape-rendering="geometricPrecision" transform="matrix(1,0,0,1,-90,-125)" stroke="rgb(245,245,245)">
      <rect x="314.7678" y="140.6521" clip-path="url(#clipPath2)" width="485.0018" rx="4" ry="4" height="190.0523" stroke="none"/>
      <rect x="314.7678" y="140.6521" clip-path="url(#clipPath2)" fill="rgb(235,235,235)" width="485.0018" height="19.0001" stroke="none"/>
    </g>
    <g font-size="15px" stroke-linecap="butt" transform="matrix(1,0,0,1,-90,-125)" text-rendering="geometricPrecision" font-family="sans-serif" shape-rendering="geometricPrecision" stroke-miterlimit="1.45">
      <text x="766.0894" xml:space="preserve" y="153.5871" clip-path="url(#clipPath2)" stroke="none">Gast</text>
      <rect x="314.7678" y="140.6521" clip-path="url(#clipPath2)" fill="none" width="485.0018" stroke-dasharray="6,2" rx="4" ry="4" height="190.0523"/>
    </g>
    <g fill="rgb(255,204,153)" text-rendering="geometricPrecision" shape-rendering="geometricPrecision" transform="matrix(1,0,0,1,-90,-125)" stroke="rgb(255,204,153)">
      <ellipse rx="73.2483" ry="19.5" clip-path="url(#clipPath2)" cx="403.0161" cy="286.3397" stroke="none"/>
    </g>
    <g text-rendering="geometricPrecision" stroke-miterlimit="1.45" shape-rendering="geometricPrecision" transform="matrix(1,0,0,1,-90,-125)" stroke-linecap="butt">
      <ellipse rx="73.2483" fill="none" ry="19.5" clip-path="url(#clipPath2)" cx="403.0161" cy="286.3397"/>
      <text x="350.7497" xml:space="preserve" y="290.7977" clip-path="url(#clipPath2)" font-family="'Ubuntu'" stroke="none">-&gt;LieblingsMasseur</text>
    </g>
    <g fill="rgb(255,204,153)" text-rendering="geometricPrecision" shape-rendering="geometricPrecision" transform="matrix(1,0,0,1,-90,-125)" stroke="rgb(255,204,153)">
      <ellipse rx="39.2483" ry="15" clip-path="url(#clipPath2)" cx="612.3715" cy="189.6522" stroke="none"/>
    </g>
    <g text-rendering="geometricPrecision" stroke-miterlimit="1.45" shape-rendering="geometricPrecision" transform="matrix(1,0,0,1,-90,-125)" stroke-linecap="butt">
      <ellipse rx="39.2483" fill="none" ry="15" clip-path="url(#clipPath2)" cx="612.3715" cy="189.6522"/>
      <text x="583.5593" xml:space="preserve" y="194.1102" clip-path="url(#clipPath2)" font-family="'Ubuntu'" stroke="none">Nachname</text>
    </g>
    <g fill="rgb(255,204,153)" text-rendering="geometricPrecision" shape-rendering="geometricPrecision" transform="matrix(1,0,0,1,-90,-125)" stroke="rgb(255,204,153)">
      <ellipse rx="39.2483" ry="15" clip-path="url(#clipPath2)" cx="520.785" cy="192.0925" stroke="none"/>
    </g>
    <g text-rendering="geometricPrecision" stroke-miterlimit="1.45" shape-rendering="geometricPrecision" transform="matrix(1,0,0,1,-90,-125)" stroke-linecap="butt">
      <ellipse rx="39.2483" fill="none" ry="15" clip-path="url(#clipPath2)" cx="520.785" cy="192.0925"/>
      <text x="495.8968" xml:space="preserve" y="196.5505" clip-path="url(#clipPath2)" font-family="'Ubuntu'" stroke="none">Vorname</text>
    </g>
    <g fill="rgb(255,204,153)" text-rendering="geometricPrecision" shape-rendering="geometricPrecision" transform="matrix(1,0,0,1,-90,-125)" stroke="rgb(255,204,153)">
      <ellipse rx="39.2483" ry="15" clip-path="url(#clipPath2)" cx="745.5213" cy="253.6074" stroke="none"/>
    </g>
    <g text-rendering="geometricPrecision" stroke-miterlimit="1.45" shape-rendering="geometricPrecision" transform="matrix(1,0,0,1,-90,-125)" stroke-linecap="butt">
      <ellipse rx="39.2483" fill="none" ry="15" clip-path="url(#clipPath2)" cx="745.5213" cy="253.6074"/>
      <text x="713.361" xml:space="preserve" y="258.0654" clip-path="url(#clipPath2)" font-family="'Ubuntu'" stroke="none">Geburtsjahr</text>
    </g>
    <g fill="rgb(255,204,153)" text-rendering="geometricPrecision" shape-rendering="geometricPrecision" transform="matrix(1,0,0,1,-90,-125)" stroke="rgb(255,204,153)">
      <ellipse rx="39.2483" ry="15" clip-path="url(#clipPath2)" cx="743.6301" cy="300.7043" stroke="none"/>
    </g>
    <g text-rendering="geometricPrecision" stroke-miterlimit="1.45" shape-rendering="geometricPrecision" transform="matrix(1,0,0,1,-90,-125)" stroke-linecap="butt">
      <ellipse rx="39.2483" fill="none" ry="15" clip-path="url(#clipPath2)" cx="743.6301" cy="300.7043"/>
      <text x="721.7419" xml:space="preserve" y="305.1624" clip-path="url(#clipPath2)" font-family="'Ubuntu'" stroke="none">Adresse</text>
    </g>
    <g fill="rgb(255,204,153)" text-rendering="geometricPrecision" shape-rendering="geometricPrecision" transform="matrix(1,0,0,1,-90,-125)" stroke="rgb(255,204,153)">
      <ellipse rx="48.2595" ry="21.0621" clip-path="url(#clipPath2)" cx="712.9693" cy="200.4483" stroke="none"/>
    </g>
    <g text-rendering="geometricPrecision" stroke-miterlimit="1.45" shape-rendering="geometricPrecision" transform="matrix(1,0,0,1,-90,-125)" stroke-linecap="butt">
      <ellipse rx="48.2595" fill="none" ry="21.0621" clip-path="url(#clipPath2)" cx="712.9693" cy="200.4483"/>
      <text x="694.8251" xml:space="preserve" y="204.9064" clip-path="url(#clipPath2)" font-family="'Ubuntu'" stroke="none">GastID</text>
      <line y2="207.1744" fill="none" x1="694.8252" clip-path="url(#clipPath2)" x2="731.1134" y1="207.1744"/>
    </g>
    <g fill="rgb(255,204,153)" text-rendering="geometricPrecision" shape-rendering="geometricPrecision" transform="matrix(1,0,0,1,-90,-125)" stroke="rgb(255,204,153)">
      <ellipse rx="39.2483" ry="15" clip-path="url(#clipPath2)" cx="456.9792" cy="230.6198" stroke="none"/>
    </g>
    <g text-rendering="geometricPrecision" stroke-miterlimit="1.45" shape-rendering="geometricPrecision" transform="matrix(1,0,0,1,-90,-125)" stroke-linecap="butt">
      <ellipse rx="39.2483" fill="none" ry="15" clip-path="url(#clipPath2)" cx="456.9792" cy="230.6198"/>
      <text x="427.081" xml:space="preserve" y="235.0779" clip-path="url(#clipPath2)" font-family="'Ubuntu'" stroke="none">Geschlecht</text>
    </g>
    <g fill="rgb(255,204,153)" text-rendering="geometricPrecision" shape-rendering="geometricPrecision" transform="matrix(1,0,0,1,-90,-125)" stroke="rgb(255,204,153)">
      <rect x="547.0384" width="76" height="39" y="273.9661" clip-path="url(#clipPath2)" stroke="none"/>
    </g>
    <g text-rendering="geometricPrecision" stroke-miterlimit="1.45" shape-rendering="geometricPrecision" transform="matrix(1,0,0,1,-90,-125)" stroke-linecap="butt">
      <rect fill="none" x="547.0384" width="76" height="39" y="273.9661" clip-path="url(#clipPath2)"/>
      <text x="572.7863" xml:space="preserve" y="297.9241" clip-path="url(#clipPath2)" font-family="'Ubuntu'" stroke="none">Gast</text>
      <path fill="none" d="M462.5154 371.4623 L553.7787 312.9736" clip-path="url(#clipPath2)"/>
      <text x="538.3134" xml:space="preserve" y="359.1272" clip-path="url(#clipPath2)" font-family="sans-serif" stroke="none">1</text>
      <path fill="none" d="M712.8944 384.4213 L612.0405 312.9471" clip-path="url(#clipPath2)"/>
      <text x="675.2391" xml:space="preserve" y="326.0778" clip-path="url(#clipPath2)" font-family="sans-serif" stroke="none">n</text>
      <path fill="none" d="M623.0543 292.5968 L696.6907 298.2921" clip-path="url(#clipPath2)"/>
      <path d="M704.6669 298.909 L693.0882 292.9985 L695.6937 298.215 L692.317 302.9688 Z" clip-path="url(#clipPath2)" stroke="none"/>
      <path fill="none" d="M623.0605 279.9452 L698.7955 255.0324" clip-path="url(#clipPath2)"/>
      <path d="M706.3949 252.5326 L693.4334 251.5326 L697.8456 255.3448 L696.5582 261.0319 Z" clip-path="url(#clipPath2)" stroke="none"/>
      <path fill="none" d="M604.6099 273.9654 L666.717 217.3694" clip-path="url(#clipPath2)"/>
      <path d="M672.6301 211.981 L660.3926 216.368 L665.9778 218.043 L667.1282 223.7594 Z" clip-path="url(#clipPath2)" stroke="none"/>
      <path fill="none" d="M590.8022 273.9836 L601.105 212.0382" clip-path="url(#clipPath2)"/>
      <path d="M602.4175 204.1466 L595.5165 215.1637 L600.9409 213.0247 L605.3809 216.8044 Z" clip-path="url(#clipPath2)" stroke="none"/>
      <path fill="none" d="M564.1526 273.9502 L528.7254 213.9062" clip-path="url(#clipPath2)"/>
      <path d="M524.6601 207.0161 L526.4517 219.8921 L529.2336 214.7675 L535.0643 214.8104 Z" clip-path="url(#clipPath2)" stroke="none"/>
      <path fill="none" d="M547.049 280.2104 L492.1172 245.2545" clip-path="url(#clipPath2)"/>
      <path d="M485.3679 240.9596 L492.8076 251.6203 L492.9609 245.7914 L498.1762 243.1837 Z" clip-path="url(#clipPath2)" stroke="none"/>
      <path fill="none" d="M547.0671 291.1955 L484.0557 288.2423" clip-path="url(#clipPath2)"/>
      <path d="M476.0645 287.8678 L487.8172 293.4241 L485.0546 288.2891 L488.2854 283.4351 Z" clip-path="url(#clipPath2)" stroke="none"/>
    </g>
    <g fill="rgb(245,245,245)" text-rendering="geometricPrecision" shape-rendering="geometricPrecision" transform="matrix(1,0,0,1,-90,-125)" stroke="rgb(245,245,245)">
      <rect x="776.2166" y="382.6333" clip-path="url(#clipPath2)" width="253.785" rx="4" ry="4" height="167.5083" stroke="none"/>
      <rect x="776.2166" y="382.6333" clip-path="url(#clipPath2)" fill="rgb(235,235,235)" width="253.785" height="19.0001" stroke="none"/>
    </g>
    <g font-size="15px" stroke-linecap="butt" transform="matrix(1,0,0,1,-90,-125)" text-rendering="geometricPrecision" font-family="sans-serif" shape-rendering="geometricPrecision" stroke-miterlimit="1.45">
      <text x="992.1664" xml:space="preserve" y="395.5684" clip-path="url(#clipPath2)" stroke="none">Mittel</text>
      <rect x="776.2166" y="382.6333" clip-path="url(#clipPath2)" fill="none" width="253.785" stroke-dasharray="6,2" rx="4" ry="4" height="167.5083"/>
    </g>
    <g fill="rgb(255,204,153)" text-rendering="geometricPrecision" shape-rendering="geometricPrecision" transform="matrix(1,0,0,1,-90,-125)" stroke="rgb(255,204,153)">
      <rect x="791.2166" width="84.4" height="30" y="505.1416" clip-path="url(#clipPath2)" stroke="none"/>
    </g>
    <g text-rendering="geometricPrecision" stroke-miterlimit="1.45" shape-rendering="geometricPrecision" transform="matrix(1,0,0,1,-90,-125)" stroke-linecap="butt">
      <rect fill="none" x="791.2166" width="84.4" height="30" y="505.1416" clip-path="url(#clipPath2)"/>
      <text x="816.8565" xml:space="preserve" y="524.5997" clip-path="url(#clipPath2)" font-family="'Ubuntu'" stroke="none">Mittel</text>
    </g>
    <g fill="rgb(255,204,153)" text-rendering="geometricPrecision" shape-rendering="geometricPrecision" transform="matrix(1,0,0,1,-90,-125)" stroke="rgb(255,204,153)">
      <ellipse rx="39.2483" ry="15" clip-path="url(#clipPath2)" cx="975.7533" cy="506.3861" stroke="none"/>
    </g>
    <g text-rendering="geometricPrecision" stroke-miterlimit="1.45" shape-rendering="geometricPrecision" transform="matrix(1,0,0,1,-90,-125)" stroke-linecap="butt">
      <ellipse rx="39.2483" fill="none" ry="15" clip-path="url(#clipPath2)" cx="975.7533" cy="506.3861"/>
      <text x="940.827" xml:space="preserve" y="510.8441" clip-path="url(#clipPath2)" font-family="'Ubuntu'" stroke="none">Bezeichnung</text>
    </g>
    <g fill="rgb(255,204,153)" text-rendering="geometricPrecision" shape-rendering="geometricPrecision" transform="matrix(1,0,0,1,-90,-125)" stroke="rgb(255,204,153)">
      <ellipse rx="48.2595" ry="21.0621" clip-path="url(#clipPath2)" cx="895.4522" cy="437.6955" stroke="none"/>
    </g>
    <g text-rendering="geometricPrecision" stroke-miterlimit="1.45" shape-rendering="geometricPrecision" transform="matrix(1,0,0,1,-90,-125)" stroke-linecap="butt">
      <ellipse rx="48.2595" fill="none" ry="21.0621" clip-path="url(#clipPath2)" cx="895.4522" cy="437.6955"/>
      <text x="873" xml:space="preserve" y="442.1536" clip-path="url(#clipPath2)" font-family="'Ubuntu'" stroke="none">MittelID</text>
      <line y2="444.4216" fill="none" x1="873" clip-path="url(#clipPath2)" x2="917.9043" y1="444.4216"/>
      <path fill="none" d="M800.665 505.1465 L730.8029 408.0024" clip-path="url(#clipPath2)"/>
      <text x="796.7233" xml:space="preserve" y="457.9809" clip-path="url(#clipPath2)" font-family="sans-serif" stroke="none">m</text>
      <path fill="none" d="M875.6245 517.0928 L933.1838 513.8951" clip-path="url(#clipPath2)"/>
      <path d="M941.1714 513.4513 L928.9125 509.1247 L932.1853 513.9506 L929.4673 519.1093 Z" clip-path="url(#clipPath2)" stroke="none"/>
      <path fill="none" d="M862.9262 505.1463 L884.4393 465.539" clip-path="url(#clipPath2)"/>
      <path d="M888.2577 458.5091 L878.1364 466.6675 L883.962 466.4178 L886.9239 471.4405 Z" clip-path="url(#clipPath2)" stroke="none"/>
    </g>
  </g>
</svg>
